<svg width="421" height="421" viewBox="0 0 421 421" fill="none" xmlns="http://www.w3.org/2000/svg">
<mask id="mask0_843_437" style="mask-type:luminance" maskUnits="userSpaceOnUse" x="166" y="167" width="84" height="84">
<path d="M166.958 167.125H249.958V250.125H166.958V167.125Z" fill="white"/>
</mask>
<g mask="url(#mask0_843_437)">
<path d="M208.458 250.125C185.531 250.125 166.958 231.422 166.958 208.625C166.958 185.823 185.531 167.125 208.458 167.125C231.385 167.125 249.958 185.698 249.958 208.625C249.958 231.552 231.26 250.125 208.458 250.125ZM208.458 169.688C186.942 169.688 169.521 187.104 169.521 208.625C169.521 230.141 186.942 247.562 208.458 247.562C229.979 247.562 247.401 230.141 247.401 208.625C247.401 187.104 229.849 169.688 208.458 169.688Z" fill="#FF6464"/>
</g>
<mask id="mask1_843_437" style="mask-type:luminance" maskUnits="userSpaceOnUse" x="0" y="0" width="421" height="421">
<path d="M0 0H421V421H0V0Z" fill="white"/>
</mask>
<g mask="url(#mask1_843_437)">
<path d="M210.5 421C94.2083 421 0 326.146 0 210.5C0 94.8542 94.2083 0 210.5 0C326.797 0 421 94.2031 421 210.5C421 326.797 326.146 421 210.5 421ZM210.5 12.9948C101.354 12.9948 12.9948 101.349 12.9948 210.5C12.9948 319.646 101.354 408.005 210.5 408.005C319.651 408.005 408.005 319.646 408.005 210.5C408.005 101.349 319 12.9948 210.5 12.9948Z" fill="#FF6464"/>
</g>
<mask id="mask2_843_437" style="mask-type:luminance" maskUnits="userSpaceOnUse" x="0" y="0" width="421" height="421">
<path d="M0 0H421V421H0V0Z" fill="white"/>
</mask>
<g mask="url(#mask2_843_437)">
<path d="M210.5 421C94.2083 421 0 326.146 0 210.5C0 94.8542 94.2083 0 210.5 0C326.797 0 421 94.2031 421 210.5C421 326.797 326.146 421 210.5 421ZM210.5 12.9948C101.354 12.9948 12.9948 101.349 12.9948 210.5C12.9948 319.646 101.354 408.005 210.5 408.005C319.651 408.005 408.005 319.646 408.005 210.5C408.005 101.349 319 12.9948 210.5 12.9948Z" fill="#FF6464"/>
</g>
<mask id="mask3_843_437" style="mask-type:luminance" maskUnits="userSpaceOnUse" x="165" y="165" width="87" height="87">
<path d="M169.364 167.525H167.364V169.525V247.525V249.525H169.364H247.364H249.364V247.525V169.525V167.525H247.364H169.364Z" fill="white" stroke="white" stroke-width="4"/>
</mask>
<g mask="url(#mask3_843_437)">
<path d="M167.364 208.525C167.364 231.053 185.709 249.525 208.364 249.525C230.887 249.525 249.364 231.181 249.364 208.525C249.364 185.874 231.016 167.525 208.364 167.525C185.709 167.525 167.364 185.998 167.364 208.525ZM173.771 208.525C173.771 189.406 189.245 173.932 208.364 173.932C227.363 173.932 242.953 189.41 242.953 208.525C242.953 227.645 227.478 243.119 208.364 243.119C189.245 243.119 173.771 227.645 173.771 208.525Z" fill="#FF6464" stroke="#FF6464" stroke-width="4"/>
</g>
<mask id="mask4_843_437" style="mask-type:luminance" maskUnits="userSpaceOnUse" x="77" y="69" width="103" height="124">
<path d="M77 69.7441H179.667V192.411H77V69.7441Z" fill="white"/>
</mask>
<g mask="url(#mask4_843_437)">
<mask id="mask5_843_437" style="mask-type:luminance" maskUnits="userSpaceOnUse" x="60" y="54" width="129" height="143">
<path d="M60.8491 82.9733L153.688 54.8691L188.167 168.765L95.3231 196.869L60.8491 82.9733Z" fill="white"/>
</mask>
<g mask="url(#mask5_843_437)">
<mask id="mask6_843_437" style="mask-type:luminance" maskUnits="userSpaceOnUse" x="60" y="54" width="129" height="143">
<path d="M60.8491 82.9733L153.688 54.8691L188.167 168.765L95.3231 196.869L60.8491 82.9733Z" fill="white"/>
</mask>
<g mask="url(#mask6_843_437)">
<path d="M178.802 143.942C179.49 146.479 178.156 149.13 175.703 150.104C175.562 150.156 175.427 150.203 175.286 150.249C172.943 150.958 170.391 149.927 169.219 147.739C154.135 119.567 140.641 123.083 121.958 127.947C108.838 131.364 97.0729 130.177 88.8333 124.598C82.3281 120.192 78.3229 113.291 77.2552 104.64C76.2239 96.2963 78.6406 88.6401 84.2447 82.489C91.3124 74.7338 102.745 70.2963 114.828 70.6244C158.802 71.8067 178.005 140.994 178.802 143.942ZM160.797 150.598C158.958 149.791 115.516 131.093 96.3489 153.479C90.9843 159.749 88.4374 167.76 89.5468 174.9C90.4479 180.692 93.5885 185.411 98.6406 188.536C103.854 191.76 109.437 192.604 114.776 190.979C115.094 190.885 115.401 190.781 115.713 190.666C121.932 188.416 127.307 182.848 130.927 174.869C135.833 164.046 139.073 156.895 157.729 160.416C160.323 160.906 162.87 159.38 163.656 156.864C164.437 154.354 163.208 151.656 160.797 150.598Z" fill="#FF6464"/>
</g>
</g>
</g>
<mask id="mask7_843_437" style="mask-type:luminance" maskUnits="userSpaceOnUse" x="190" y="51" width="122" height="111">
<path d="M190.333 51.0781H311.666V161.745H190.333V51.0781Z" fill="white"/>
</mask>
<g mask="url(#mask7_843_437)">
<mask id="mask8_843_437" style="mask-type:luminance" maskUnits="userSpaceOnUse" x="183" y="32" width="152" height="144">
<path d="M284.583 32.0625L334.13 114.286L233.062 175.188L183.515 92.9635L284.583 32.0625Z" fill="white"/>
</mask>
<g mask="url(#mask8_843_437)">
<mask id="mask9_843_437" style="mask-type:luminance" maskUnits="userSpaceOnUse" x="183" y="32" width="152" height="144">
<path d="M284.583 32.0625L334.13 114.286L233.062 175.188L183.515 92.9635L284.583 32.0625Z" fill="white"/>
</mask>
<g mask="url(#mask9_843_437)">
<path d="M254.64 160.141C252.369 161.422 249.499 160.786 247.968 158.672C247.885 158.552 247.802 158.432 247.729 158.312C246.479 156.234 246.848 153.531 248.666 151.875C272.072 130.516 265.421 118.427 256.208 101.693C249.739 89.9323 248.026 78.3542 251.38 69.0833C254.036 61.7656 259.692 56.2344 267.744 53.099C275.515 50.0729 283.463 50.5208 290.729 54.3958C299.895 59.2865 306.937 69.1719 309.557 80.8438C319.098 123.333 257.281 158.656 254.64 160.141ZM243.874 144.49C244.203 142.526 251.619 96.276 225.453 83.3542C218.124 79.7344 209.812 79.25 203.218 82.0573C197.874 84.3333 194.104 88.5 192.328 94.1146C190.494 99.9011 191.036 105.464 193.901 110.193C194.067 110.474 194.239 110.745 194.421 111.016C198.098 116.432 204.755 120.229 213.302 121.755C224.89 123.818 232.546 125.182 233.692 143.948C233.854 146.552 235.937 148.625 238.546 148.766C241.151 148.901 243.442 147.062 243.874 144.49Z" fill="#FF6464"/>
</g>
</g>
</g>
<mask id="mask10_843_437" style="mask-type:luminance" maskUnits="userSpaceOnUse" x="269" y="145" width="115" height="113">
<path d="M269 145.744H383.667V257.744H269V145.744Z" fill="white"/>
</mask>
<g mask="url(#mask10_843_437)">
<mask id="mask11_843_437" style="mask-type:luminance" maskUnits="userSpaceOnUse" x="249" y="138" width="153" height="148">
<path d="M401.458 207.708L344.75 285.171L249.537 215.463L306.245 138.004L401.458 207.708Z" fill="white"/>
</mask>
<g mask="url(#mask11_843_437)">
<mask id="mask12_843_437" style="mask-type:luminance" maskUnits="userSpaceOnUse" x="249" y="138" width="153" height="148">
<path d="M401.458 207.708L344.75 285.171L249.537 215.463L306.245 138.004L401.458 207.708Z" fill="white"/>
</mask>
<g mask="url(#mask12_843_437)">
<path d="M271.75 229.557C269.693 227.952 269.167 225.062 270.531 222.833C270.604 222.708 270.688 222.588 270.771 222.473C272.203 220.515 274.839 219.812 277.073 220.854C305.807 234.192 314.391 223.385 326.271 208.426C334.62 197.916 344.641 191.864 354.485 191.38C362.261 190.999 369.547 194.083 375.547 200.301C381.339 206.301 383.995 213.801 383.229 221.999C382.261 232.348 375.86 242.661 366.104 249.583C330.599 274.796 274.141 231.416 271.75 229.557ZM282.031 213.577C283.969 213.124 329.495 202.104 331.313 172.979C331.818 164.817 329.057 156.963 323.917 151.968C319.755 147.911 314.453 146.051 308.589 146.577C302.542 147.119 297.62 149.77 294.365 154.234C294.172 154.499 293.99 154.765 293.807 155.036C290.229 160.515 289.297 168.124 291.193 176.598C293.766 188.083 295.464 195.676 278.599 203.979C276.255 205.13 275.151 207.859 276.031 210.317C276.906 212.77 279.49 214.176 282.031 213.577Z" fill="#FF6464"/>
</g>
</g>
</g>
<mask id="mask13_843_437" style="mask-type:luminance" maskUnits="userSpaceOnUse" x="203" y="259" width="98" height="115">
<path d="M203.666 259.078H300.999V373.745H203.666V259.078Z" fill="white"/>
</mask>
<g mask="url(#mask13_843_437)">
<mask id="mask14_843_437" style="mask-type:luminance" maskUnits="userSpaceOnUse" x="189" y="247" width="115" height="134">
<path d="M284.177 380.208L189.5 364.333L209.01 247.958L303.692 263.833L284.177 380.208Z" fill="white"/>
</mask>
<g mask="url(#mask14_843_437)">
<mask id="mask15_843_437" style="mask-type:luminance" maskUnits="userSpaceOnUse" x="189" y="247" width="115" height="134">
<path d="M284.177 380.208L189.5 364.333L209.01 247.958L303.692 263.833L284.177 380.208Z" fill="white"/>
</mask>
<g mask="url(#mask15_843_437)">
<path d="M206.4 274.136C206.906 271.578 209.255 269.808 211.859 270.026C212.005 270.037 212.145 270.058 212.286 270.078C214.682 270.479 216.489 272.516 216.567 274.979C217.551 306.646 231.062 309.464 249.765 313.36C262.906 316.099 272.812 322.328 277.666 330.907C281.499 337.688 282.015 345.578 279.156 353.735C276.4 361.604 270.89 367.344 263.218 370.344C253.541 374.125 241.453 373.037 230.885 367.433C192.411 347.032 205.812 277.104 206.4 274.136ZM225.291 276.141C226.567 277.672 256.864 313.396 283.703 301.938C291.218 298.724 296.994 292.729 299.156 285.896C300.906 280.354 300.187 274.782 297.083 269.782C293.88 264.62 289.307 261.417 283.854 260.511C283.531 260.453 283.213 260.412 282.885 260.375C276.385 259.636 269.166 262.224 262.447 267.719C253.338 275.177 247.322 280.104 232.328 268.766C230.244 267.193 227.312 267.427 225.515 269.318C223.713 271.203 223.614 274.141 225.291 276.141Z" fill="#FF6464"/>
</g>
</g>
</g>
<mask id="mask16_843_437" style="mask-type:luminance" maskUnits="userSpaceOnUse" x="51" y="223" width="121" height="95">
<path d="M51.666 223.078H171.666V317.745H51.666V223.078Z" fill="white"/>
</mask>
<g mask="url(#mask16_843_437)">
<mask id="mask17_843_437" style="mask-type:luminance" maskUnits="userSpaceOnUse" x="44" y="219" width="130" height="110">
<path d="M55.7964 328.203L44.9058 232.823L162.145 219.438L173.031 314.818L55.7964 328.203Z" fill="white"/>
</mask>
<g mask="url(#mask17_843_437)">
<mask id="mask18_843_437" style="mask-type:luminance" maskUnits="userSpaceOnUse" x="44" y="219" width="130" height="110">
<path d="M55.7964 328.203L44.9058 232.823L162.145 219.438L173.031 314.818L55.7964 328.203Z" fill="white"/>
</mask>
<g mask="url(#mask18_843_437)">
<path d="M136.26 224.156C138.859 223.938 141.208 225.709 141.723 228.266C141.749 228.412 141.77 228.552 141.786 228.693C142.062 231.104 140.604 233.406 138.26 234.162C108.093 243.854 109.124 257.62 110.541 276.667C111.541 290.052 108.286 301.297 101.385 308.328C95.9266 313.886 88.4839 316.563 79.8537 316.068C71.5307 315.594 64.4891 311.88 59.4891 305.339C53.1818 297.078 50.8901 285.162 53.3589 273.459C62.338 230.844 133.249 224.412 136.26 224.156ZM139.552 242.87C138.437 244.516 112.468 283.505 130.895 306.13C136.057 312.469 143.411 316.365 150.578 316.552C156.39 316.703 161.546 314.474 165.494 310.11C169.567 305.61 171.385 300.323 170.749 294.834C170.713 294.511 170.666 294.188 170.614 293.87C169.526 287.412 165.046 281.193 157.911 276.255C148.223 269.557 141.828 265.136 148.583 247.594C149.526 245.156 148.484 242.406 146.177 241.193C143.864 239.985 141.015 240.703 139.552 242.87Z" fill="#FF6464"/>
</g>
</g>
</g>
</svg>
